<svg width="47" height="47" viewBox="0 0 47 47" fill="none" xmlns="http://www.w3.org/2000/svg">
<path d="M23.5 0.00100708C10.5227 0.00100708 0 10.5216 0 23.5C0 36.4783 10.5216 46.9989 23.5 46.9989C36.4794 46.9989 47 36.4783 47 23.5C47 10.5216 36.4794 0.00100708 23.5 0.00100708ZM23.5 7.02747C27.7941 7.02747 31.2738 10.5082 31.2738 14.8002C31.2738 19.0933 27.7941 22.573 23.5 22.573C19.2079 22.573 15.7283 19.0933 15.7283 14.8002C15.7283 10.5082 19.2079 7.02747 23.5 7.02747ZM23.4948 40.855C19.2121 40.855 15.2896 39.2953 12.2641 36.7137C11.527 36.0851 11.1018 35.1633 11.1018 34.1961C11.1018 29.8431 14.6248 26.3593 18.9788 26.3593H28.0233C32.3783 26.3593 35.8879 29.8431 35.8879 34.1961C35.8879 35.1643 35.4647 36.084 34.7267 36.7127C31.7022 39.2953 27.7786 40.855 23.4948 40.855Z" fill="black"/>
</svg>
