<?xml version="1.0" encoding="utf-8"?><svg viewBox="0 0 502.66 502.66" xmlns="http://www.w3.org/2000/svg" xmlns:xlink="http://www.w3.org/1999/xlink"><style>:root>svg{display:none}:root>svg:target{display:block}</style><svg viewBox="0 0 502.664 502.664" id="icon" xmlns="http://www.w3.org/2000/svg"><path d="M153.821 358.226L0 274.337v-46.463l153.821-83.414v54.574L46.636 250.523l107.185 53.431v54.272zm26.273 29.358L282.103 115.08h32.227L212.084 387.584h-31.99zm168.749-29.358v-54.272l107.164-52.999-107.164-52.59v-53.927l153.821 83.522v46.183l-153.821 84.083z"/></svg><svg viewBox="0 0 47 47" id="user" xmlns="http://www.w3.org/2000/svg"><path d="M23.5.001C10.523.001 0 10.521 0 23.5c0 12.978 10.522 23.499 23.5 23.499 12.98 0 23.5-10.52 23.5-23.499C47 10.522 36.48.001 23.5.001zm0 7.026a7.773 7.773 0 11.001 15.547A7.773 7.773 0 0123.5 7.027zm-.005 33.828c-4.283 0-8.205-1.56-11.23-4.141a3.312 3.312 0 01-1.163-2.518c0-4.353 3.523-7.837 7.877-7.837h9.044c4.355 0 7.865 3.484 7.865 7.837 0 .968-.423 1.888-1.161 2.517a17.241 17.241 0 01-11.232 4.142z"/></svg></svg>